<?xml version="1.0" encoding="utf-8"?>
<!-- Generator: Adobe Illustrator 24.3.0, SVG Export Plug-In . SVG Version: 6.00 Build 0)  -->
<svg version="1.1" id="Layer_1" xmlns="http://www.w3.org/2000/svg" xmlns:xlink="http://www.w3.org/1999/xlink" x="0px" y="0px"
	 viewBox="0 0 4820 4820" style="enable-background:new 0 0 4820 4820;" xml:space="preserve">
<style type="text/css">
	.st0{fill:#FFFFFF;}
	.st1{fill:#F15A29;}
</style>
<g>
	<path class="st0" d="M4064.19,2810.6H2538.48l139.92-242.35h966.03l-61.41-106.37h-843.21
		c129.56-224.37,428.22-741.69,561.53-972.59l360.19,623.87h-279.84L3301.33,1974c-34.87,60.39-107.31,185.85-141.76,245.53h563.36
		C3820.72,2388.89,3966.43,2641.27,4064.19,2810.6z"/>
	<path class="st0" d="M1208.12,2545.66h660.09l152.97,264.95h279.84l-762.86-1321.3L775.3,2810.6h279.86L1208.12,2545.66z
		 M1348.04,2303.31l190.12-329.3l190.12,329.3H1348.04z"/>
	<polygon class="st1" points="1898.35,2810.6 1177.97,2810.6 1269.53,2652.02 1806.79,2652.02 	"/>
	<polygon class="st1" points="2864.89,1489.31 3023.75,1764.46 3182.61,1489.31 	"/>
	<polygon class="st0" points="2742.08,1489.3 2462.21,1489.31 2682.5,1870.82 2621.08,1977.2 2339.39,1489.31 2059.57,1489.3 
		2481.17,2219.54 2419.75,2325.91 1936.74,1489.32 1656.89,1489.31 2419.75,2810.62 2962.34,1870.82 2742.09,1489.31 	"/>
	<g>
		<path class="st1" d="M338.46,3274.9l-22.05,49.05h-86.4l135-270h112.5l39.6,270h-83.7l-4.5-49.05H338.46z M406.41,3123.25
			c-8.55,20.25-17.1,40.05-26.1,60.3l-15.3,33.3h58.5l-3.15-33.3c-1.8-20.25-3.15-40.05-4.5-60.3H406.41z"/>
		<path class="st0" d="M654.8,3240.7h-29.7l-14.85,83.25h-81l46.8-270h121.5c70.65,0,107.55,36.9,95.4,104.85
			c-6.75,37.8-26.55,60.3-56.7,71.55L780.8,3319l-0.9,4.95h-94.05L654.8,3240.7z M646.25,3121.45l-10.8,60.3h39.6
			c25.65,0,35.1-8.55,38.7-27c4.05-23.85-6.75-33.3-31.95-33.3H646.25z"/>
		<path class="st0" d="M923,3240.7h-29.7l-14.85,83.25h-81l46.8-270h121.5c70.65,0,107.55,36.9,95.4,104.85
			c-6.75,37.8-26.55,60.3-56.7,71.55L1049,3319l-0.9,4.95h-94.05L923,3240.7z M914.45,3121.45l-10.8,60.3h39.6
			c25.65,0,35.1-8.55,38.7-27c4.05-23.85-6.75-33.3-31.95-33.3H914.45z"/>
		<path class="st0" d="M1151.6,3274.9l-22.05,49.05h-86.4l135-270h112.5l39.6,270h-83.7l-4.5-49.05H1151.6z M1219.55,3123.25
			c-8.55,20.25-17.1,40.05-26.1,60.3l-15.3,33.3h58.5l-3.15-33.3c-1.8-20.25-3.15-40.05-4.5-60.3H1219.55z"/>
		<path class="st0" d="M1423.4,3323.95h-81l47.7-270h206.1l-13.05,74.25h-125.1l-9.45,52.65h116.1l-12.15,69.3h-116.1
			L1423.4,3323.95z"/>
		<path class="st1" d="M1863.04,3118.75c-8.55,30.6-17.55,62.1-26.1,90.45l-33.75,114.75h-110.25l-14.4-270h84.6l-1.35,107.1
			c0,32.85-0.9,63-3.15,94.05h6.3c9.45-32.4,18.9-63.45,29.7-94.05l36.45-107.1h101.7l-2.25,107.1c-0.45,30.6-3.15,61.65-5.4,94.05
			h6.75c9.45-31.05,19.35-60.3,30.15-94.05l34.2-107.1h85.05l-108,270h-116.55l5.85-114.75c1.8-28.8,4.5-59.85,6.75-90.45H1863.04z"
			/>
		<path class="st0" d="M2126.73,3323.95h-81l47.7-270h81L2126.73,3323.95z"/>
		<path class="st0" d="M2177.58,3178.6h144l-12.15,69.75h-144L2177.58,3178.6z"/>
		<path class="st0" d="M2402.13,3323.95h-81l47.7-270h206.1l-13.05,74.25h-125.1l-9.45,52.65h116.1l-12.15,69.3h-116.1
			L2402.13,3323.95z"/>
		<path class="st1" d="M2637.02,3247.45l80.1-16.65c3.15,25.65,21.6,36,48.15,36c20.25,0,31.5-5.4,33.75-15.75
			c2.7-14.4-4.95-23.85-47.25-30.15c-75.15-11.7-94.5-47.25-85.5-98.55c8.55-48.6,48.6-75.15,122.4-75.15
			c82.35,0,105.75,36,109.35,77.85l-83.25,15.3c-2.25-21.15-9.45-31.5-36.9-31.5c-20.25,0-31.05,5.4-32.4,16.2
			c-2.7,11.7,1.35,23.4,47.25,30.6c81.9,15.3,94.95,53.55,87.75,98.55c-9,49.05-47.25,76.5-124.65,76.5
			C2661.32,3330.7,2640.62,3291.55,2637.02,3247.45z"/>
		<path class="st0" d="M2978.12,3323.95h-81l47.7-270h215.1l-12.15,69.75h-134.1l-6.75,36h125.1l-9.9,57.15h-125.1l-6.75,37.35
			h134.55l-12.6,69.75H2978.12z"/>
		<path class="st0" d="M3271.96,3240.7h-29.7l-14.85,83.25h-81l46.8-270h121.5c70.65,0,107.55,36.9,95.4,104.85
			c-6.75,37.8-26.55,60.3-56.7,71.55l44.55,88.65l-0.9,4.95h-94.05L3271.96,3240.7z M3263.41,3121.45l-10.8,60.3h39.6
			c25.65,0,35.1-8.55,38.7-27c4.05-23.85-6.75-33.3-31.95-33.3H3263.41z"/>
		<path class="st0" d="M3539.71,3254.2c8.55-19.8,16.65-39.6,26.1-59.85l63-140.4h85.5l-135,270h-110.25l-39.6-270h84.6l12.6,140.4
			c1.8,20.25,3.15,40.05,4.5,59.85H3539.71z"/>
		<path class="st0" d="M3759.76,3323.95h-81l47.7-270h81L3759.76,3323.95z"/>
		<path class="st0" d="M3813.31,3178.6c14.85-84.6,70.65-131.4,149.85-131.4c78.75,0,113.85,42.3,114.3,110.7l-79.65,9
			c0-32.85-9.9-49.5-42.3-49.5c-36.9,0-56.25,31.5-62.55,68.4c-8.55,47.25,2.25,76.05,41.85,76.05c31.05,0,43.2-17.55,57.15-52.2
			l75.6,15.3c-18.45,69.75-63,105.75-136.35,105.75C3840.76,3330.7,3797.11,3273.55,3813.31,3178.6z"/>
		<path class="st0" d="M4158,3323.95h-81l47.7-270h215.1l-12.15,69.75h-134.1l-6.75,36h125.1l-9.9,57.15h-125.1l-6.75,37.35h134.55
			l-12.6,69.75H4158z"/>
		<path class="st0" d="M4329,3247.45l80.1-16.65c3.15,25.65,21.6,36,48.15,36c20.25,0,31.5-5.4,33.75-15.75
			c2.7-14.4-4.95-23.85-47.25-30.15c-75.15-11.7-94.5-47.25-85.5-98.55c8.55-48.6,48.6-75.15,122.4-75.15
			c82.35,0,105.75,36,109.35,77.85l-83.25,15.3c-2.25-21.15-9.45-31.5-36.9-31.5c-20.25,0-31.05,5.4-32.4,16.2
			c-2.7,11.7,1.35,23.4,47.25,30.6c81.9,15.3,94.95,53.55,87.75,98.55c-9,49.05-47.25,76.5-124.65,76.5
			C4353.3,3330.7,4332.6,3291.55,4329,3247.45z"/>
	</g>
</g>
</svg>
